:FULLY-SPECIFIED
:FORCE-ALL-JOINTS-BE-3DOF
:DEGREES
34
root 5.98394 16.8999 -28.0766 10.0029 -1.90615 -2.27125
lfemur -20.1023 1.67201 -19.7778
ltibia 33.7617 0 0
lfoot -36.0546 4.27353 0
ltoes 36.2325 0 0
rfemur -16.8052 7.44754 19.5678
rtibia 30.5332 0 0
rfoot -27.4731 -19.1657 0
rtoes 15.0838 0 0
lowerback -5.48452 2.57423 -0.988734
upperback -1.9212 3.47032 0.845039
thorax 0.982589 1.73993 1.63365
lowerneck -9.54487 -1.65261 2.66147
upperneck -2.58112 -2.46814 0.749079
head 0.759896 -1.23662 -0.295566
lclavicle -3.82032e-14 -8.87698e-15 0
lhumerus -41.5377 -12.7814 97.1193
lradius 38.8249 0 0
lwrist 5.69982 0 0
lhand -11.2236 6.07354 0
lfingers 7.12502 0 0
lthumb 14.805 35.5247 0
rclavicle -3.82032e-14 -8.87698e-15 0
rhumerus -40.6511 -5.05046 -88.6507
rradius 39.1449 0 0
rwrist 11.1 0 0
rhand -26.8184 -19.9103 0
rfingers 7.12502 0 0
rthumb -0.244672 -49.8899 0
35
root 5.97682 16.9 -28.0773 10.0226 -1.86819 -2.24802
lfemur -20.1421 1.66099 -19.7827
ltibia 33.7865 -0 0
lfoot -35.9906 4.23938 -0.000294239
ltoes 36.1817 -0 0
rfemur -16.8185 7.32072 19.5582
rtibia 30.5225 -0 0
rfoot -27.4654 -19.1107 5.70356e-05
rtoes 14.7113 -0 0
lowerback -5.50552 2.55002 -0.922054
upperback -1.90925 3.43547 0.786975
thorax 1.01427 1.72175 1.53616
lowerneck -9.54442 -1.64423 2.68164
upperneck -2.6128 -2.45884 0.789903
head 0.750063 -1.23188 -0.285715
lclavicle 0 0 0
lhumerus -41.5305 -12.8128 97.0606
lradius 38.9469 -0 0
lwrist 5.77156 0 0
lhand -11.2534 5.90136 0.000690622
lfingers 0 0 0
lthumb 14.7763 35.3546 0.000657357
rclavicle 0 0 0
rhumerus -40.6221 -5.03636 -88.7482
rradius 39.1442 -0 0
rwrist 11.0581 0 0
rhand -26.8037 -19.9555 -8.93724e-05
rfingers 0 0 0
rthumb -0.230484 -49.9351 -8.63253e-05
36
root 5.96965 16.9004 -28.0777 10.0509 -1.81384 -2.21474
lfemur -20.1991 1.64521 -19.7896
ltibia 33.8221 -0 0
lfoot -35.899 4.19047 -0.000649211
ltoes 36.1089 -0 0
rfemur -16.8374 7.1391 19.5446
rtibia 30.5072 -0 0
rfoot -27.4544 -19.0319 0.000125843
rtoes 14.1778 -0 0
lowerback -5.53563 2.51539 -0.826548
upperback -1.89208 3.38557 0.703813
thorax 1.0597 1.69582 1.39652
lowerneck -9.54376 -1.63223 2.71052
upperneck -2.65816 -2.44547 0.848358
head 0.735982 -1.22508 -0.27161
lclavicle 0 0 0
lhumerus -41.5201 -12.8578 96.9765
lradius 39.1217 -0 0
lwrist 5.87431 0 0
lhand -11.296 5.65477 0.00152381
lfingers 0 0 0
lthumb 14.7352 35.111 0.00145041
rclavicle 0 0 0
rhumerus -40.5806 -5.01608 -88.8878
rradius 39.1433 -0 0
rwrist 10.998 0 0
rhand -26.7827 -20.0202 -0.000197191
rfingers 0 0 0
rthumb -0.210166 -49.9998 -0.000190468
37
root 5.96257 16.901 -28.0779 10.0856 -1.74734 -2.17396
lfemur -20.2689 1.62588 -19.7981
ltibia 33.8656 -0 0
lfoot -35.7868 4.13061 -0.00097728
ltoes 36.0198 -0 0
rfemur -16.8606 6.91676 19.528
rtibia 30.4884 -0 0
rfoot -27.4409 -18.9355 0.000189436
rtoes 13.5247 -0 0
lowerback -5.57258 2.47306 -0.709614
upperback -1.87096 3.32453 0.601996
thorax 1.1154 1.66422 1.22556
lowerneck -9.54295 -1.61753 2.74588
upperneck -2.71366 -2.42905 0.9199
head 0.718747 -1.21675 -0.254345
lclavicle 0 0 0
lhumerus -41.5072 -12.9129 96.8736
lradius 39.3356 -0 0
lwrist 6.00008 0 0
lhand -11.3482 5.35292 0.00229387
lfingers 0 0 0
lthumb 14.6849 34.8128 0.00218338
rclavicle 0 0 0
rhumerus -40.5299 -4.99111 -89.0586
rradius 39.1421 -0 0
rwrist 10.9245 0 0
rhand -26.7569 -20.0994 -0.000296839
rfingers 0 0 0
rthumb -0.185293 -50.079 -0.000286718
38
root 5.95575 16.9017 -28.0779 10.1245 -1.6729 -2.12825
lfemur -20.347 1.60423 -19.8076
ltibia 33.9144 -0 0
lfoot -35.6613 4.06357 -0.00120554
ltoes 35.92 -0 0
rfemur -16.8864 6.6678 19.5095
rtibia 30.4673 -0 0
rfoot -27.4258 -18.8275 0.000233683
rtoes 12.7935 -0 0
lowerback -5.61405 2.42576 -0.578653
upperback -1.84719 3.25622 0.48797
thorax 1.17788 1.62903 1.03411
lowerneck -9.54203 -1.60108 2.78547
upperneck -2.77578 -2.41058 0.999986
head 0.699452 -1.20742 -0.235016
lclavicle 0 0 0
lhumerus -41.4928 -12.9745 96.7583
lradius 39.5751 -0 0
lwrist 6.14091 0 0
lhand -11.4067 5.01493 0.00282967
lfingers 0 0 0
lthumb 14.6286 34.4788 0.00269337
rclavicle 0 0 0
rhumerus -40.4731 -4.96298 -89.2499
rradius 39.1408 -0 0
rwrist 10.8422 0 0
rhand -26.7281 -20.188 -0.000366171
rfingers 0 0 0
rthumb -0.157442 -50.1677 -0.000353686
39
root 5.94933 16.9026 -28.0777 10.1654 -1.59475 -2.08019
lfemur -20.429 1.58147 -19.8175
ltibia 33.9656 -0 0
lfoot -35.5293 3.99316 -0.00128708
ltoes 35.8152 -0 0
rfemur -16.9134 6.4063 19.4902
rtibia 30.4453 -0 0
rfoot -27.4099 -18.714 0.000249487
rtoes 12.0254 -0 0
lowerback -5.65772 2.37618 -0.441071
upperback -1.82207 3.18453 0.368186
thorax 1.24362 1.5923 0.832976
lowerneck -9.54105 -1.58381 2.82705
upperneck -2.841 -2.39109 1.08408
head 0.679189 -1.19762 -0.214719
lclavicle 0 0 0
lhumerus -41.4774 -13.0393 96.6371
lradius 39.8266 -0 0
lwrist 6.28882 0 0
lhand -11.4681 4.65993 0.00302106
lfingers 0 0 0
lthumb 14.5694 34.1281 0.00287554
rclavicle 0 0 0
rhumerus -40.4137 -4.93323 -89.4507
rradius 39.1394 -0 0
rwrist 10.7557 0 0
rhand -26.6978 -20.2812 -0.000390936
rfingers 0 0 0
rthumb -0.128191 -50.2608 -0.000377607
40
root 5.94347 16.9034 -28.0775 10.2061 -1.5171 -2.03237
lfemur -20.5106 1.55883 -19.8273
ltibia 34.0165 -0 0
lfoot -35.3982 3.92317 -0.00120748
ltoes 35.711 -0 0
rfemur -16.9401 6.14636 19.4712
rtibia 30.4233 -0 0
rfoot -27.3941 -18.6013 0.000234058
rtoes 11.262 -0 0
lowerback -5.70124 2.327 -0.30428
upperback -1.79696 3.11332 0.249095
thorax 1.3091 1.55602 0.633013
lowerneck -9.54006 -1.56663 2.86838
upperneck -2.9058 -2.37162 1.16765
head 0.659052 -1.18786 -0.194546
lclavicle 0 0 0
lhumerus -41.462 -13.1035 96.5166
lradius 40.0767 -0 0
lwrist 6.43585 0 0
lhand -11.5292 4.30706 0.00283421
lfingers 0 0 0
lthumb 14.5106 33.7795 0.0026977
rclavicle 0 0 0
rhumerus -40.3547 -4.90345 -89.6503
rradius 39.138 -0 0
rwrist 10.6698 0 0
rhand -26.6677 -20.3737 -0.000366759
rfingers 0 0 0
rthumb -0.0991138 -50.3534 -0.000354254
41
root 5.93833 16.9043 -28.0772 10.2444 -1.44416 -1.98737
lfemur -20.5872 1.53754 -19.8365
ltibia 34.0643 -0 0
lfoot -35.275 3.8574 -0.000986696
ltoes 35.6131 -0 0
rfemur -16.9652 5.90207 19.4534
rtibia 30.4027 -0 0
rfoot -27.3793 -18.4953 0.000191262
rtoes 10.5445 -0 0
lowerback -5.74225 2.28088 -0.1757
upperback -1.77323 3.04644 0.137157
thorax 1.37074 1.52213 0.445061
lowerneck -9.53913 -1.55049 2.90722
upperneck -2.96667 -2.35324 1.24616
head 0.640131 -1.17869 -0.175592
lclavicle 0 0 0
lhumerus -41.4474 -13.1639 96.4033
lradius 40.3117 -0 0
lwrist 6.57402 0 0
lhand -11.5865 3.97545 0.00231597
lfingers 0 0 0
lthumb 14.4554 33.4519 0.00220442
rclavicle 0 0 0
rhumerus -40.2993 -4.87528 -89.8379
rradius 39.1367 -0 0
rwrist 10.589 0 0
rhand -26.6394 -20.4608 -0.000299699
rfingers 0 0 0
rthumb -0.0717887 -50.4404 -0.000289481
42
root 5.93406 16.9051 -28.0769 10.2781 -1.38013 -1.94782
lfemur -20.6545 1.51884 -19.8446
ltibia 34.1063 -0 0
lfoot -35.1668 3.79964 -0.00067615
ltoes 35.5271 -0 0
rfemur -16.9871 5.68752 19.4379
rtibia 30.3846 -0 0
rfoot -27.3663 -18.4023 0.000131065
rtoes 9.91448 -0 0
lowerback -5.77835 2.24045 -0.0627565
upperback -1.75228 2.98775 0.0388357
thorax 1.42497 1.49254 0.279974
lowerneck -9.53829 -1.53632 2.94133
upperneck -3.0201 -2.33703 1.31509
head 0.623517 -1.17063 -0.158948
lclavicle 0 0 0
lhumerus -41.4344 -13.2169 96.3038
lradius 40.5181 -0 0
lwrist 6.69537 0 0
lhand -11.6369 3.68422 0.00158704
lfingers 0 0 0
lthumb 14.4068 33.1641 0.0015106
rclavicle 0 0 0
rhumerus -40.2508 -4.8504 -90.0025
rradius 39.1356 -0 0
rwrist 10.5181 0 0
rhand -26.6145 -20.5372 -0.000205374
rfingers 0 0 0
rthumb -0.0477917 -50.5168 -0.000198372
43
root 5.93082 16.9057 -28.0767 10.3049 -1.32921 -1.91633
lfemur -20.7081 1.50395 -19.851
ltibia 34.1398 -0 0
lfoot -35.0807 3.75369 -0.000351152
ltoes 35.4587 -0 0
rfemur -17.0045 5.51683 19.4256
rtibia 30.3702 -0 0
rfoot -27.3559 -18.3283 6.80675e-05
rtoes 9.41319 -0 0
lowerback -5.80712 2.20834 0.0271197
upperback -1.73554 2.94108 -0.0394025
thorax 1.46818 1.4691 0.148608
lowerneck -9.53763 -1.52505 2.96847
upperneck -3.0626 -2.32408 1.36992
head 0.6103 -1.16421 -0.145709
lclavicle 0 0 0
lhumerus -41.4241 -13.2591 96.2246
lradius 40.6823 -0 0
lwrist 6.79191 0 0
lhand -11.677 3.45252 0.000824206
lfingers 0 0 0
lthumb 14.3682 32.9352 0.000784507
rclavicle 0 0 0
rhumerus -40.2122 -4.8305 -90.1335
rradius 39.1347 -0 0
rwrist 10.4616 0 0
rhand -26.5948 -20.5979 -0.000106659
rfingers 0 0 0
rthumb -0.0286994 -50.5776 -0.000103023
44
root 5.92876 16.9061 -28.0765 10.3227 -1.29557 -1.89551
lfemur -20.7434 1.49411 -19.8552
ltibia 34.1618 -0 0
lfoot -35.0238 3.72333 -9.86027e-05
ltoes 35.4135 -0 0
rfemur -17.016 5.40407 19.4175
rtibia 30.3606 -0 0
rfoot -27.3491 -18.2794 1.91132e-05
rtoes 9.08205 -0 0
lowerback -5.82616 2.18715 0.0864953
upperback -1.72445 2.91027 -0.0910885
thorax 1.49675 1.45368 0.061826
lowerneck -9.53718 -1.5176 2.9864
upperneck -3.09067 -2.31551 1.40613
head 0.60157 -1.15997 -0.136964
lclavicle 0 0 0
lhumerus -41.4172 -13.2869 96.1723
lradius 40.7907 -0 0
lwrist 6.85568 0 0
lhand -11.7034 3.29947 0.000231433
lfingers 0 0 0
lthumb 14.3427 32.784 0.000220286
rclavicle 0 0 0
rhumerus -40.1868 -4.8173 -90.2201
rradius 39.1341 -0 0
rwrist 10.4244 0 0
rhand -26.5817 -20.6381 -2.99497e-05
rfingers 0 0 0
rthumb -0.016088 -50.6178 -2.89285e-05
45
root 5.90772 16.8937 -28.0894 10.3291 -1.28343 -1.88799
lfemur -20.7562 1.49056 -19.8567
ltibia 34.1698 0 0
lfoot -35.0033 3.71237 0
ltoes 35.3972 0 0
rfemur -17.0201 5.36335 19.4146
rtibia 30.3572 0 0
rfoot -27.3466 -18.2617 0
rtoes 8.96248 0 0
lowerback -5.83304 2.1795 0.107938
upperback -1.72044 2.89914 -0.109754
thorax 1.50707 1.44812 0.0304861
lowerneck -9.53702 -1.51491 2.99287
upperneck -3.1008 -2.31241 1.41921
head 0.598418 -1.15844 -0.133806
lclavicle 1.35298e-14 -9.34288e-15 0
lhumerus -41.4147 -13.297 96.1534
lradius 40.8299 0 0
lwrist 6.87871 0 0
lhand -11.713 3.2442 0
lfingers 7.12502 0 0
lthumb 14.3335 32.7294 0
rclavicle 1.35298e-14 -9.34288e-15 0
rhumerus -40.1776 -4.81253 -90.2513
rradius 39.1339 0 0
rwrist 10.4109 0 0
rhand -26.577 -20.6526 0
rfingers 7.12502 0 0
rthumb -0.0115339 -50.6323 0
46
root 5.90207 16.8897 -28.0937 10.3748 -1.12042 -1.89683
lfemur -21.1081 1.9388 -19.8434
ltibia 34.6206 -0 0
lfoot -34.672 3.06103 -0.0291586
ltoes 35.4459 -0 0
rfemur -17.067 5.07368 19.445
rtibia 30.3838 -0 0
rfoot -27.3764 -18.1931 -0.00027576
rtoes 8.27615 -0 0
lowerback -5.79868 2.15943 0.208856
upperback -1.71084 2.8672 -0.146176
thorax 1.50345 1.4324 -0.0664788
lowerneck -9.55111 -1.53764 2.96284
upperneck -3.18151 -2.33839 1.46078
head 0.576057 -1.17153 -0.116364
lclavicle 0 0 0
lhumerus -41.3847 -13.3706 96.0948
lradius 40.9573 -0 0
lwrist 6.92815 0 0
lhand -11.653 3.23237 -9.56242e-05
lfingers 0 0 0
lthumb 14.3913 32.7133 -0.000125248
rclavicle 0 0 0
rhumerus -40.1674 -4.65396 -90.3553
rradius 39.2399 -0 0
rwrist 10.2889 0 0
rhand -26.5108 -20.7049 -0.000466944
rfingers 0 0 0
rthumb 0.0524407 -50.6845 -0.000449655
47
root 5.89629 16.8849 -28.0995 10.4403 -0.88697 -1.90926
lfemur -21.6121 2.58084 -19.8292
ltibia 35.2661 -0 0
lfoot -34.1969 2.12798 -0.0643518
ltoes 35.5155 -0 0
rfemur -17.1344 4.65889 19.4889
rtibia 30.4219 -0 0
rfoot -27.4192 -18.0948 -0.000608438
rtoes 7.29325 -0 0
lowerback -5.74954 2.13059 0.353358
upperback -1.69706 2.82146 -0.198344
thorax 1.49831 1.40988 -0.205339
lowerneck -9.57128 -1.57021 2.91984
upperneck -3.29713 -2.37549 1.52037
head 0.544027 -1.19027 -0.091376
lclavicle 0 0 0
lhumerus -41.3417 -13.476 96.0107
lradius 41.1397 -0 0
lwrist 6.99895 0 0
lhand -11.567 3.21544 -0.000210986
lfingers 0 0 0
lthumb 14.4742 32.6903 -0.000276348
rclavicle 0 0 0
rhumerus -40.1533 -4.42684 -90.5042
rradius 39.3916 -0 0
rwrist 10.1142 0 0
rhand -26.4159 -20.7799 -0.00103027
rfingers 0 0 0
rthumb 0.144059 -50.7592 -0.000992123
